<svg width="153" height="70" viewBox="0 0 153 70" fill="none" xmlns="http://www.w3.org/2000/svg">
<path d="M30.0001 28L21.0001 35V41.5L30.0001 35V28Z" fill="#0DC8C4"/>
<path d="M21.0001 29.5V22.5L51.0001 0L47.5001 9.5L21.0001 29.5Z" fill="white"/>
<path d="M29.9998 40.0002L30.0244 47.0001L0.103946 69.6058L3.57044 60.0935L29.9998 40.0002Z" fill="white"/>
<path d="M58.2017 29.5455C58.1122 28.7898 57.7493 28.2031 57.1129 27.7855C56.4766 27.3679 55.696 27.1591 54.7713 27.1591C54.0952 27.1591 53.5036 27.2685 52.9964 27.4872C52.4943 27.706 52.1016 28.0067 51.8182 28.3896C51.5398 28.7724 51.4006 29.2074 51.4006 29.6946C51.4006 30.1023 51.4975 30.4528 51.6914 30.7461C51.8903 31.0344 52.1438 31.2756 52.4521 31.4695C52.7603 31.6584 53.0835 31.815 53.4215 31.9393C53.7596 32.0586 54.0703 32.1555 54.3537 32.2301L55.9048 32.6477C56.3026 32.7521 56.745 32.8963 57.2322 33.0803C57.7244 33.2642 58.1942 33.5153 58.6417 33.8335C59.0941 34.1467 59.467 34.5494 59.7603 35.0415C60.0536 35.5337 60.2003 36.1378 60.2003 36.8537C60.2003 37.679 59.984 38.4247 59.5515 39.0909C59.1239 39.7571 58.4975 40.2866 57.6722 40.6793C56.8519 41.0721 55.8551 41.2685 54.6818 41.2685C53.5881 41.2685 52.641 41.092 51.8406 40.739C51.0451 40.386 50.4187 39.8938 49.9613 39.2624C49.5089 38.631 49.2528 37.8977 49.1932 37.0625H51.1023C51.152 37.6392 51.3459 38.1165 51.6839 38.4943C52.027 38.8672 52.4595 39.1456 52.9815 39.3295C53.5085 39.5085 54.0753 39.598 54.6818 39.598C55.3878 39.598 56.0217 39.4837 56.5835 39.255C57.1452 39.0213 57.5902 38.6982 57.9183 38.2855C58.2464 37.8679 58.4105 37.3807 58.4105 36.8239C58.4105 36.3168 58.2688 35.9041 57.9854 35.5859C57.7021 35.2678 57.3292 35.0092 56.8668 34.8104C56.4045 34.6115 55.9048 34.4375 55.3679 34.2884L53.4886 33.7514C52.2955 33.4084 51.3509 32.9187 50.6548 32.2823C49.9588 31.646 49.6108 30.8132 49.6108 29.7841C49.6108 28.929 49.842 28.1832 50.3043 27.5469C50.7717 26.9055 51.3981 26.4084 52.1836 26.0554C52.9741 25.6974 53.8565 25.5185 54.831 25.5185C55.8153 25.5185 56.6903 25.695 57.456 26.0479C58.2216 26.396 58.8281 26.8732 59.2756 27.4798C59.728 28.0863 59.9666 28.7749 59.9915 29.5455H58.2017ZM66.3731 41.2685C65.6473 41.2685 64.9885 41.1317 64.3969 40.8583C63.8053 40.5799 63.3355 40.1797 62.9875 39.6577C62.6395 39.1307 62.4655 38.4943 62.4655 37.7486C62.4655 37.0923 62.5947 36.5604 62.8532 36.1527C63.1118 35.7401 63.4573 35.4169 63.8898 35.1832C64.3224 34.9496 64.7996 34.7756 65.3216 34.6612C65.8486 34.5419 66.3781 34.4474 66.9101 34.3778C67.6061 34.2884 68.1704 34.2212 68.6029 34.1765C69.0404 34.1268 69.3586 34.0447 69.5574 33.9304C69.7613 33.8161 69.8632 33.6172 69.8632 33.3338V33.2741C69.8632 32.5384 69.6618 31.9666 69.2591 31.5589C68.8614 31.1513 68.2574 30.9474 67.447 30.9474C66.6068 30.9474 65.9481 31.1314 65.4708 31.4993C64.9935 31.8672 64.6579 32.2599 64.464 32.6776L62.7936 32.081C63.0919 31.3849 63.4896 30.843 63.9868 30.4553C64.4889 30.0625 65.0358 29.7891 65.6274 29.6349C66.224 29.4759 66.8106 29.3963 67.3873 29.3963C67.7552 29.3963 68.1778 29.4411 68.6551 29.5305C69.1373 29.6151 69.6022 29.7915 70.0496 30.06C70.502 30.3285 70.8774 30.7337 71.1757 31.2756C71.474 31.8175 71.6231 32.5433 71.6231 33.4531V41H69.8632V39.4489H69.7737C69.6544 39.6974 69.4555 39.9634 69.1771 40.2468C68.8987 40.5302 68.5283 40.7713 68.066 40.9702C67.6036 41.169 67.0393 41.2685 66.3731 41.2685ZM66.6416 39.6875C67.3376 39.6875 67.9243 39.5508 68.4015 39.2773C68.8838 39.0039 69.2467 38.6509 69.4903 38.2184C69.7389 37.7859 69.8632 37.331 69.8632 36.8537V35.2429C69.7886 35.3324 69.6246 35.4144 69.371 35.489C69.1224 35.5586 68.8341 35.6207 68.5059 35.6754C68.1828 35.7251 67.8671 35.7699 67.5589 35.8097C67.2556 35.8445 67.0095 35.8743 66.8206 35.8991C66.3632 35.9588 65.9356 36.0558 65.5379 36.19C65.1452 36.3192 64.827 36.5156 64.5834 36.7791C64.3447 37.0376 64.2254 37.3906 64.2254 37.8381C64.2254 38.4496 64.4516 38.9119 64.904 39.2251C65.3614 39.5334 65.9406 39.6875 66.6416 39.6875ZM74.8354 41V29.5455H76.5357V31.3352H76.6848C76.9235 30.7237 77.3088 30.2489 77.8407 29.9109C78.3727 29.5678 79.0115 29.3963 79.7573 29.3963C80.513 29.3963 81.1419 29.5678 81.644 29.9109C82.1511 30.2489 82.5463 30.7237 82.8297 31.3352H82.949C83.2424 30.7436 83.6824 30.2738 84.269 29.9258C84.8556 29.5728 85.5591 29.3963 86.3794 29.3963C87.4036 29.3963 88.2413 29.717 88.8926 30.3583C89.5439 30.9947 89.8695 31.9865 89.8695 33.3338V41H88.1096V33.3338C88.1096 32.4886 87.8784 31.8846 87.416 31.5217C86.9537 31.1587 86.4093 30.9773 85.7828 30.9773C84.9775 30.9773 84.3535 31.2209 83.911 31.7081C83.4686 32.1903 83.2473 32.8018 83.2473 33.5426V41H81.4576V33.1548C81.4576 32.5036 81.2463 31.979 80.8237 31.5813C80.4011 31.1786 79.8567 30.9773 79.1905 30.9773C78.7331 30.9773 78.3056 31.0991 77.9078 31.3427C77.5151 31.5863 77.1969 31.9244 76.9533 32.3569C76.7147 32.7844 76.5953 33.2791 76.5953 33.8409V41H74.8354ZM96.4581 41.2685C95.7322 41.2685 95.0735 41.1317 94.4819 40.8583C93.8903 40.5799 93.4205 40.1797 93.0724 39.6577C92.7244 39.1307 92.5504 38.4943 92.5504 37.7486C92.5504 37.0923 92.6797 36.5604 92.9382 36.1527C93.1967 35.7401 93.5423 35.4169 93.9748 35.1832C94.4073 34.9496 94.8846 34.7756 95.4066 34.6612C95.9336 34.5419 96.4631 34.4474 96.995 34.3778C97.6911 34.2884 98.2553 34.2212 98.6879 34.1765C99.1254 34.1268 99.4435 34.0447 99.6424 33.9304C99.8462 33.8161 99.9482 33.6172 99.9482 33.3338V33.2741C99.9482 32.5384 99.7468 31.9666 99.3441 31.5589C98.9464 31.1513 98.3423 30.9474 97.532 30.9474C96.6918 30.9474 96.033 31.1314 95.5558 31.4993C95.0785 31.8672 94.7429 32.2599 94.549 32.6776L92.8786 32.081C93.1768 31.3849 93.5746 30.843 94.0717 30.4553C94.5739 30.0625 95.1207 29.7891 95.7124 29.6349C96.3089 29.4759 96.8956 29.3963 97.4723 29.3963C97.8402 29.3963 98.2628 29.4411 98.7401 29.5305C99.2223 29.6151 99.6871 29.7915 100.135 30.06C100.587 30.3285 100.962 30.7337 101.261 31.2756C101.559 31.8175 101.708 32.5433 101.708 33.4531V41H99.9482V39.4489H99.8587C99.7393 39.6974 99.5405 39.9634 99.2621 40.2468C98.9837 40.5302 98.6133 40.7713 98.1509 40.9702C97.6886 41.169 97.1243 41.2685 96.4581 41.2685ZM96.7266 39.6875C97.4226 39.6875 98.0092 39.5508 98.4865 39.2773C98.9688 39.0039 99.3317 38.6509 99.5753 38.2184C99.8239 37.7859 99.9482 37.331 99.9482 36.8537V35.2429C99.8736 35.3324 99.7095 35.4144 99.456 35.489C99.2074 35.5586 98.919 35.6207 98.5909 35.6754C98.2678 35.7251 97.9521 35.7699 97.6438 35.8097C97.3406 35.8445 97.0945 35.8743 96.9055 35.8991C96.4482 35.9588 96.0206 36.0558 95.6229 36.19C95.2301 36.3192 94.9119 36.5156 94.6683 36.7791C94.4297 37.0376 94.3104 37.3906 94.3104 37.8381C94.3104 38.4496 94.5366 38.9119 94.989 39.2251C95.4464 39.5334 96.0256 39.6875 96.7266 39.6875ZM104.92 41V29.5455H106.621V31.2756H106.74C106.949 30.7088 107.327 30.2489 107.873 29.896C108.42 29.543 109.037 29.3665 109.723 29.3665C109.852 29.3665 110.014 29.369 110.208 29.3739C110.402 29.3789 110.548 29.3864 110.648 29.3963V31.1861C110.588 31.1712 110.451 31.1488 110.237 31.119C110.029 31.0842 109.807 31.0668 109.574 31.0668C109.017 31.0668 108.52 31.1836 108.082 31.4173C107.65 31.646 107.307 31.9641 107.053 32.3718C106.805 32.7745 106.68 33.2344 106.68 33.7514V41H104.92ZM116.105 41.2685C115.379 41.2685 114.72 41.1317 114.128 40.8583C113.537 40.5799 113.067 40.1797 112.719 39.6577C112.371 39.1307 112.197 38.4943 112.197 37.7486C112.197 37.0923 112.326 36.5604 112.585 36.1527C112.843 35.7401 113.189 35.4169 113.621 35.1832C114.054 34.9496 114.531 34.7756 115.053 34.6612C115.58 34.5419 116.11 34.4474 116.642 34.3778C117.338 34.2884 117.902 34.2212 118.334 34.1765C118.772 34.1268 119.09 34.0447 119.289 33.9304C119.493 33.8161 119.595 33.6172 119.595 33.3338V33.2741C119.595 32.5384 119.393 31.9666 118.991 31.5589C118.593 31.1513 117.989 30.9474 117.178 30.9474C116.338 30.9474 115.68 31.1314 115.202 31.4993C114.725 31.8672 114.389 32.2599 114.195 32.6776L112.525 32.081C112.823 31.3849 113.221 30.843 113.718 30.4553C114.22 30.0625 114.767 29.7891 115.359 29.6349C115.955 29.4759 116.542 29.3963 117.119 29.3963C117.487 29.3963 117.909 29.4411 118.387 29.5305C118.869 29.6151 119.334 29.7915 119.781 30.06C120.233 30.3285 120.609 30.7337 120.907 31.2756C121.205 31.8175 121.355 32.5433 121.355 33.4531V41H119.595V39.4489H119.505C119.386 39.6974 119.187 39.9634 118.909 40.2468C118.63 40.5302 118.26 40.7713 117.797 40.9702C117.335 41.169 116.771 41.2685 116.105 41.2685ZM116.373 39.6875C117.069 39.6875 117.656 39.5508 118.133 39.2773C118.615 39.0039 118.978 38.6509 119.222 38.2184C119.47 37.7859 119.595 37.331 119.595 36.8537V35.2429C119.52 35.3324 119.356 35.4144 119.102 35.489C118.854 35.5586 118.566 35.6207 118.237 35.6754C117.914 35.7251 117.599 35.7699 117.29 35.8097C116.987 35.8445 116.741 35.8743 116.552 35.8991C116.095 35.9588 115.667 36.0558 115.269 36.19C114.877 36.3192 114.558 36.5156 114.315 36.7791C114.076 37.0376 113.957 37.3906 113.957 37.8381C113.957 38.4496 114.183 38.9119 114.635 39.2251C115.093 39.5334 115.672 39.6875 116.373 39.6875ZM124.805 41V25.7273H130.145C131.209 25.7273 132.086 25.9112 132.777 26.2791C133.468 26.642 133.983 27.1317 134.321 27.7482C134.659 28.3597 134.828 29.0384 134.828 29.7841C134.828 30.4403 134.711 30.9822 134.478 31.4098C134.249 31.8374 133.946 32.1754 133.568 32.424C133.195 32.6726 132.79 32.8565 132.352 32.9759V33.125C132.82 33.1548 133.29 33.3189 133.762 33.6172C134.234 33.9155 134.629 34.343 134.948 34.8999C135.266 35.4567 135.425 36.1378 135.425 36.9432C135.425 37.7088 135.251 38.3974 134.903 39.0089C134.555 39.6204 134.005 40.1051 133.255 40.4631C132.504 40.821 131.527 41 130.324 41H124.805ZM126.655 39.3594H130.324C131.532 39.3594 132.39 39.1257 132.897 38.6584C133.409 38.1861 133.665 37.6143 133.665 36.9432C133.665 36.4261 133.533 35.9489 133.27 35.5114C133.006 35.0689 132.631 34.7159 132.144 34.4524C131.656 34.1839 131.08 34.0497 130.413 34.0497H126.655V39.3594ZM126.655 32.4389H130.085C130.642 32.4389 131.144 32.3295 131.592 32.1108C132.044 31.892 132.402 31.5838 132.666 31.1861C132.934 30.7884 133.068 30.321 133.068 29.7841C133.068 29.1129 132.835 28.5437 132.367 28.0763C131.9 27.604 131.159 27.3679 130.145 27.3679H126.655V32.4389ZM138.225 41V29.5455H139.985V41H138.225ZM139.12 27.6364C138.777 27.6364 138.481 27.5195 138.233 27.2859C137.989 27.0522 137.867 26.7713 137.867 26.4432C137.867 26.1151 137.989 25.8342 138.233 25.6005C138.481 25.3668 138.777 25.25 139.12 25.25C139.463 25.25 139.756 25.3668 140 25.6005C140.248 25.8342 140.373 26.1151 140.373 26.4432C140.373 26.7713 140.248 27.0522 140 27.2859C139.756 27.5195 139.463 27.6364 139.12 27.6364ZM142.88 41V39.6577L149.383 31.3054V31.1861H143.089V29.5455H151.65V30.9474L145.326 39.2401V39.3594H151.859V41H142.88Z" fill="white"/>
<path d="M49.7045 50V44.1818H53.1932V44.8068H50.4091V46.7727H52.9318V47.3977H50.4091V50H49.7045ZM61.098 44.1818H61.8026V48.0341C61.8026 48.4318 61.7088 48.7869 61.5213 49.0994C61.3357 49.41 61.0734 49.6553 60.7344 49.8352C60.3954 50.0133 59.9977 50.1023 59.5412 50.1023C59.0848 50.1023 58.6871 50.0133 58.348 49.8352C58.009 49.6553 57.7458 49.41 57.5583 49.0994C57.3727 48.7869 57.2799 48.4318 57.2799 48.0341V44.1818H57.9844V47.9773C57.9844 48.2614 58.0469 48.5142 58.1719 48.7358C58.2969 48.9555 58.4749 49.1288 58.706 49.2557C58.9389 49.3807 59.2174 49.4432 59.5412 49.4432C59.8651 49.4432 60.1435 49.3807 60.3764 49.2557C60.6094 49.1288 60.7874 48.9555 60.9105 48.7358C61.0355 48.5142 61.098 48.2614 61.098 47.9773V44.1818ZM70.7032 44.1818V50H70.0214L66.8509 45.4318H66.7941V50H66.0895V44.1818H66.7714L69.9532 48.7614H70.01V44.1818H70.7032ZM76.7884 50H74.993V44.1818H76.868C77.4324 44.1818 77.9153 44.2983 78.3168 44.5312C78.7184 44.7623 79.0261 45.0947 79.2401 45.5284C79.4542 45.9602 79.5612 46.4773 79.5612 47.0795C79.5612 47.6856 79.4532 48.2074 79.2373 48.6449C79.0214 49.0805 78.707 49.4157 78.2941 49.6506C77.8812 49.8835 77.3793 50 76.7884 50ZM75.6975 49.375H76.743C77.224 49.375 77.6227 49.2822 77.939 49.0966C78.2553 48.911 78.4911 48.6468 78.6464 48.304C78.8017 47.9612 78.8793 47.553 78.8793 47.0795C78.8793 46.6098 78.8026 46.2055 78.6492 45.8665C78.4958 45.5256 78.2667 45.2642 77.9617 45.0824C77.6568 44.8987 77.2771 44.8068 76.8225 44.8068H75.6975V49.375ZM84.3275 44.1818V50H83.623V44.1818H84.3275ZM93.2338 44.1818V50H92.552L89.3815 45.4318H89.3247V50H88.6202V44.1818H89.302L92.4838 48.7614H92.5406V44.1818H93.2338ZM101.501 46C101.438 45.8087 101.356 45.6373 101.254 45.4858C101.153 45.3324 101.033 45.2017 100.893 45.0938C100.755 44.9858 100.597 44.9034 100.421 44.8466C100.245 44.7898 100.052 44.7614 99.8418 44.7614C99.4971 44.7614 99.1836 44.8504 98.9014 45.0284C98.6193 45.2064 98.3948 45.4688 98.2282 45.8153C98.0615 46.1619 97.9782 46.5871 97.9782 47.0909C97.9782 47.5947 98.0624 48.0199 98.231 48.3665C98.3996 48.7131 98.6278 48.9754 98.9157 49.1534C99.2035 49.3314 99.5274 49.4205 99.8872 49.4205C100.221 49.4205 100.514 49.3494 100.768 49.2074C101.024 49.0634 101.222 48.8608 101.365 48.5994C101.508 48.3362 101.58 48.0265 101.58 47.6705L101.796 47.7159H100.046V47.0909H102.262V47.7159C102.262 48.1951 102.16 48.6117 101.955 48.9659C101.753 49.3201 101.472 49.5947 101.115 49.7898C100.758 49.983 100.349 50.0795 99.8872 50.0795C99.3721 50.0795 98.9194 49.9583 98.5293 49.7159C98.141 49.4735 97.838 49.1288 97.6202 48.6818C97.4043 48.2348 97.2963 47.7045 97.2963 47.0909C97.2963 46.6307 97.3579 46.2169 97.481 45.8494C97.606 45.4801 97.7821 45.1657 98.0094 44.9062C98.2367 44.6468 98.5056 44.4479 98.8162 44.3097C99.1268 44.1714 99.4687 44.1023 99.8418 44.1023C100.149 44.1023 100.435 44.1487 100.7 44.2415C100.967 44.3324 101.204 44.4621 101.413 44.6307C101.623 44.7973 101.798 44.9972 101.938 45.2301C102.079 45.4612 102.175 45.7178 102.228 46H101.501Z" fill="#0DC8C4"/>
</svg>
